<?xml version="1.0" encoding="UTF-8"?>
<svg width="125" height="50" fill="none"  id="Calque_2" data-name="Calque 2" xmlns="http://www.w3.org/2000/svg" xmlns:xlink="http://www.w3.org/1999/xlink" viewBox="0 0 374.11 187.05">
  <defs>
    <style>
      .cls-1 {
        fill: #1d1d1b;
      }

      .cls-2 {
        fill: url(#gradient);
      }
    </style>
    <linearGradient id="gradient" data-name="Dégradé sans nom 7" x1="18.54" y1="93.53" x2="355.57" y2="93.53" gradientUnits="userSpaceOnUse">
      <stop offset="0" stop-color="#f7f6e0"/>
      <stop offset="1" stop-color="#ec6265"/>
    </linearGradient>
  </defs>
  <g id="Calque_1-2" data-name="Calque 1">
    <rect class="cls-2" x="18.54" y="43.57" width="337.02" height="99.91"/>
    <g>
      <path class="cls-1" d="M117.56,83.88c-6.6-.05-11.6,5.08-11.62,11.94-.03,6.91,4.84,12.18,11.35,12.27,6.55,.1,11.53-5.07,11.56-12,.03-7.05-4.69-12.16-11.29-12.21Z"/>
      <path class="cls-1" d="M162.93,83.85c-6.63-.03-11.51,5-11.62,11.97-.11,6.97,4.91,12.32,11.55,12.31,6.53,0,11.52-5.26,11.53-12.13,0-6.91-4.91-12.12-11.46-12.16Z"/>
      <path class="cls-1" d="M259.55,83.63c-6.5-.04-11.78,5.42-11.81,12.22-.03,6.91,5.04,12.34,11.59,12.4,6.76,.06,11.87-5.22,11.89-12.3,.02-6.89-5.08-12.28-11.67-12.32Z"/>
      <path class="cls-1" d="M325.63,83.49c-6.6-.03-11.86,5.49-11.86,12.47,0,6.97,5.02,12.3,11.63,12.35,6.87,.04,11.83-5.08,11.86-12.24,.03-7.15-4.96-12.54-11.63-12.57Z"/>
      <path class="cls-1" d="M320.38,0H53.73C24.05,0,0,24.05,0,53.73v79.6c0,29.67,24.05,53.73,53.73,53.73H320.38c29.67,0,53.73-24.05,53.73-53.73V53.73c0-29.67-24.05-53.73-53.73-53.73ZM85.66,113.62c-7.67,0-15.34,.03-23,.13-2.57,.03-4.13-1.49-4.86-3.49-1.53-4.19-3.05-8.47-3.79-12.84-.54-3.22-1.48-4.89-4.82-6-10.61-3.51-16.51-11.16-17.97-22.2-.12-.93-.43-2.01-.11-2.8,.4-.98,1.23-2.11,2.14-2.44,.74-.26,2.36,.29,2.75,.96,1.9,3.31,4.89,4.43,8.36,4.42,4.63-.02,8.96,.68,12.79,3.5,.43,.32,1.42,.05,2.08-.15,2.16-.65,4.24-1.58,6.43-2.05,2.61-.57,5.33-.67,7.96-1.18,2.33-.46,4.24-1.68,5.38-3.89,.79-1.53,2.08-2.19,3.74-1.72,1.68,.47,2.28,1.78,2.28,3.45,.04,9.69-4.17,16.96-12.52,21.84-1.82,1.07-3.76,1.94-6.34,3.25,3.38,2.98,6.18,5.9,9.42,8.21,3.64,2.6,7.76,4.54,11.49,7.03,1.04,.7,2.08,2.33,2.04,3.49-.05,1.7-1.63,2.47-3.46,2.47Zm49.37-2.69c-.06,1.67-1.05,2.78-2.65,2.77-6.39-.05-12.85,.29-19.14-.55-7.88-1.06-13.28-8.32-13.55-16.76-.27-8.51,4.75-15.82,12.4-17.71,5.28-1.3,10.18-.32,14.42,3.26,.58,.49,1.14,.98,2.16,1.85,0-1.5,0-2.49,0-3.48,0-4.18-.01-8.35,0-12.53,.01-3.05,1.11-4.51,3.3-4.47,2.13,.04,3.09,1.37,3.09,4.38,0,12.76,0,25.53,0,38.29,0,1.65,.02,3.31-.04,4.96Zm45.34,.45c-.03,1.71-1.57,2.38-3.27,2.37-2.84-.02-5.68,0-8.53,0,0-.06,0-.11,0-.17-3.23,0-6.54,.43-9.69-.08-8.55-1.38-14.3-9.22-13.76-18.23,.55-9.22,7.15-16.33,15.7-16.94,9.98-.71,17.88,4.78,19.26,14.44,.88,6.1,.38,12.41,.28,18.62Zm36.6-28.62c-1.79,3.68-3.52,7.38-5.28,11.08-2.67,5.61-5.34,11.22-8.01,16.83-.66,1.4-1.4,2.61-3.25,2.63-1.91,.02-2.56-1.3-3.21-2.67-4.3-9.02-8.59-18.04-12.86-27.06-1.1-2.32-.75-3.85,.96-4.62,1.71-.77,3.2-.03,4.23,2.18,3.17,6.77,6.31,13.55,9.47,20.31,.38,.82,.84,1.61,1.49,2.83,.89-1.87,1.6-3.33,2.28-4.79,2.73-5.93,5.45-11.86,8.17-17.79,.23-.5,.44-1.01,.71-1.49,.97-1.69,2.54-1.92,4.09-1.19,1.54,.73,2.03,2.07,1.21,3.75Zm14.16,26.52c-.02,2.79-1.01,3.99-3.2,3.98-2.2-.01-3.15-1.18-3.15-4.02-.02-8.89-.02-17.78,0-26.67,0-2.65,1.18-4.12,3.19-4.11,1.99,.01,3.15,1.49,3.16,4.14,.02,4.48,0,8.97,0,13.45,0,4.41,.02,8.81,0,13.22Zm45.97-.2c0,3.68-.9,4.6-4.63,4.54-5.44-.09-10.95,.19-16.31-.51-9.84-1.29-15.33-10.7-14.07-19.46,1.07-7.4,4.71-12.86,12.3-14.8,5.2-1.33,10.01-.24,14.17,3.29,.3,.26,.58,.53,.88,.79,.29,.25,.58,.48,1.38,1.15,0-5.68-.02-10.79,.02-15.9,0-.93-.08-2.11,.43-2.72,.71-.84,1.94-1.7,2.95-1.7,.87,0,1.95,1.04,2.56,1.89,.44,.61,.32,1.66,.32,2.52,.02,13.64,.02,27.28,0,40.92Zm65.23-7.97c-1.74,6.27-6,10.52-12.37,11.73-4.51,.86-9.26,.61-13.9,.74-8.84,.24-7.78-.33-7.78-7.65,0-12.92,0-25.84,0-38.76,0-2.61,1.09-3.7,3.32-3.4,1.98,.26,2.51,1.62,2.51,3.39-.01,4.65,0,9.29,0,13.94v2.51c.21,.06,.42,.13,.63,.19,.88-.76,1.73-1.56,2.66-2.26,6.37-4.83,15.33-4.14,20.84,1.78,4.74,5.09,5.92,11.22,4.09,17.78Z"/>
    </g>
  </g>
</svg>